<svg width="24" height="25" viewBox="0 0 24 25" fill="none" xmlns="http://www.w3.org/2000/svg">
<g opacity="0.5">
<path d="M2 12.5C2 8.25736 2 6.13604 3.17157 4.81802C4.34315 3.5 6.22876 3.5 10 3.5H14C17.7712 3.5 19.6569 3.5 20.8284 4.81802C22 6.13604 22 8.25736 22 12.5C22 16.7426 22 18.864 20.8284 20.182C19.6569 21.5 17.7712 21.5 14 21.5H10C6.22876 21.5 4.34315 21.5 3.17157 20.182C2 18.864 2 16.7426 2 12.5Z" stroke="#141B34" stroke-width="2"/>
<path d="M2 9.5H10C12.8284 9.5 14.2426 9.5 15.1213 10.3787C16 11.2574 16 12.6716 16 15.5V21.5" stroke="#141B34" stroke-width="2"/>
<path d="M10 21.5V9.5" stroke="#141B34" stroke-width="2"/>
</g>
</svg>
