<svg width="24" height="25" viewBox="0 0 24 25" fill="none" xmlns="http://www.w3.org/2000/svg">
<g opacity="0.5">
<path d="M22 12.5H15C14.3509 12.5 13.7193 12.2895 13.2 11.9L10.8 10.1C10.2807 9.71053 9.64911 9.5 9 9.5H2" stroke="#141B34" stroke-width="2" stroke-linecap="round" stroke-linejoin="round"/>
<path d="M3 9.5V11.5C3 15.2712 3 17.1569 4.17157 18.3284C5.34315 19.5 7.22876 19.5 11 19.5H14C16.8089 19.5 18.2134 19.5 19.2223 18.8259C19.659 18.534 20.034 18.159 20.3259 17.7223C21 16.7134 21 15.3089 21 12.5" stroke="#141B34" stroke-width="2" stroke-linecap="round" stroke-linejoin="round"/>
<path d="M18 19.5V21.5M6 19.5V21.5" stroke="#141B34" stroke-width="2" stroke-linecap="round" stroke-linejoin="round"/>
<path d="M5 9.5V5C5 4.17157 5.67157 3.5 6.5 3.5C7.32843 3.5 8 4.17157 8 5V5.5" stroke="#141B34" stroke-width="2" stroke-linecap="round" stroke-linejoin="round"/>
</g>
</svg>
