<svg width="24" height="25" viewBox="0 0 24 25" fill="none" xmlns="http://www.w3.org/2000/svg">
<g opacity="0.5">
<path d="M22 18H2" stroke="#141B34" stroke-width="2" stroke-linecap="round" stroke-linejoin="round"/>
<path d="M22 21.5V16.5C22 14.6144 22 13.6716 21.4142 13.0858C20.8284 12.5 19.8856 12.5 18 12.5H6C4.11438 12.5 3.17157 12.5 2.58579 13.0858C2 13.6716 2 14.6144 2 16.5V21.5" stroke="#141B34" stroke-width="2" stroke-linecap="round" stroke-linejoin="round"/>
<path d="M16 12.5V11.1178C16 10.6103 15.9085 10.4405 15.4396 10.2405C14.4631 9.82389 13.2778 9.5 12 9.5C10.7222 9.5 9.53688 9.82389 8.5604 10.2405C8.09154 10.4405 8 10.6103 8 11.1178V12.5" stroke="#141B34" stroke-width="2" stroke-linecap="round"/>
<path d="M20 12.5V7.86057C20 7.16893 20 6.82311 19.8292 6.49653C19.6584 6.16995 19.4151 6.00091 18.9284 5.66283C16.9661 4.29978 14.5772 3.5 12 3.5C9.42282 3.5 7.03391 4.29978 5.07163 5.66283C4.58492 6.00091 4.34157 6.16995 4.17079 6.49653C4 6.82311 4 7.16893 4 7.86057V12.5" stroke="#141B34" stroke-width="2" stroke-linecap="round"/>
</g>
</svg>
