<svg width="50" height="50" viewBox="0 0 50 50" fill="none" xmlns="http://www.w3.org/2000/svg">
<path d="M45.8337 43.75V20.0222C45.8337 17.2661 45.8337 15.888 45.1172 14.8207C44.401 13.7535 43.1324 13.2417 40.5953 12.2181L28.0953 7.17492C26.567 6.55831 25.8028 6.25 25.0003 6.25C24.1978 6.25 23.4337 6.55831 21.9053 7.17492L9.40541 12.2181C6.8683 13.2417 5.59976 13.7535 4.88339 14.8207C4.16699 15.888 4.16699 17.2661 4.16699 20.0222V43.75" stroke="#6A513D" stroke-width="2.34375" stroke-linecap="round" stroke-linejoin="round"/>
<path d="M33.3337 39.5833V43.7499M16.667 39.5833V43.7499" stroke="#6A513D" stroke-width="2.34375" stroke-linecap="round" stroke-linejoin="round"/>
<path d="M15.625 29.1666L16.1303 27.1455C16.8882 24.1139 17.2671 22.5983 18.3974 21.7158C19.5276 20.8333 21.09 20.8333 24.2148 20.8333H25.7852C28.91 20.8333 30.4723 20.8333 31.6027 21.7158C32.7329 22.5983 33.1119 24.1139 33.8698 27.1455L34.375 29.1666" stroke="#6A513D" stroke-width="2.34375" stroke-linecap="round" stroke-linejoin="round"/>
<path d="M35.4167 29.1667H14.5833C13.4327 29.1667 12.5 30.0995 12.5 31.2501V37.5001C12.5 38.6507 13.4327 39.5834 14.5833 39.5834H35.4167C36.5673 39.5834 37.5 38.6507 37.5 37.5001V31.2501C37.5 30.0995 36.5673 29.1667 35.4167 29.1667Z" stroke="#6A513D" stroke-width="2.34375" stroke-linecap="round" stroke-linejoin="round"/>
<path d="M17.708 34.3542V34.3751" stroke="#6A513D" stroke-width="2.34375" stroke-linecap="round" stroke-linejoin="round"/>
<path d="M32.292 34.3542V34.3751" stroke="#6A513D" stroke-width="2.34375" stroke-linecap="round" stroke-linejoin="round"/>
</svg>
