<svg width="51" height="50" viewBox="0 0 51 50" fill="none" xmlns="http://www.w3.org/2000/svg">
<path d="M16.6143 28.6087C16.6143 28.6087 18.5006 26.0626 19.7393 25.4826C23.4785 23.732 24.2391 22.9712 25.9893 19.2307C26.5691 17.9917 29.1143 16.1047 29.1143 16.1047M21.8227 33.8187C21.8227 33.8187 24.3679 31.9316 24.9477 30.6926C26.6979 26.9524 27.4585 26.1916 31.1977 24.4407C32.4362 23.8607 34.3227 21.3147 34.3227 21.3147" stroke="#6A513D" stroke-width="2.34375" stroke-linecap="round" stroke-linejoin="round"/>
<path d="M30.5655 6.02603C31.6216 4.96636 33.3363 4.96363 34.3957 6.01996L44.4203 16.016C45.4797 17.0723 45.4824 18.7877 44.4263 19.8474L41.2418 23.0432C40.1857 24.1028 38.4709 24.1055 37.4116 23.0492L27.387 13.0531C26.3278 11.9968 26.3251 10.2814 27.3809 9.22174L30.5655 6.02603Z" stroke="#6A513D" stroke-width="2.34375"/>
<path d="M9.69552 26.8804C10.7515 25.8209 12.4663 25.8182 13.5257 26.8744L23.5504 36.8704C24.6095 37.9269 24.6122 39.6421 23.5564 40.7019L20.3717 43.8975C19.3157 44.9573 17.6009 44.96 16.5416 43.9036L6.517 33.9075C5.45764 32.8513 5.45493 31.1359 6.51093 30.0763L9.69552 26.8804Z" stroke="#6A513D" stroke-width="2.34375"/>
<path d="M37.8707 7.19265C41.7924 2.05291 48.7088 8.00006 43.2986 12.5597M7.53822 37.4526C2.58064 41.6014 8.82928 48.247 13.1409 42.6366" stroke="#6A513D" stroke-width="2.34375" stroke-linecap="round" stroke-linejoin="round"/>
</svg>
