<svg width="51" height="50" viewBox="0 0 51 50" fill="none" xmlns="http://www.w3.org/2000/svg">
<path d="M19.25 4.16675V10.4167" stroke="#6A513D" stroke-width="2.34375" stroke-linecap="round" stroke-linejoin="round"/>
<path d="M31.75 4.16675V10.4167" stroke="#6A513D" stroke-width="2.34375" stroke-linecap="round" stroke-linejoin="round"/>
<path d="M25.5 37.5V45.8333" stroke="#6A513D" stroke-width="2.34375" stroke-linecap="round" stroke-linejoin="round"/>
<path d="M26.9456 17.7083L22.5893 22.2393C22.1225 22.7247 22.457 23.4235 23.2183 23.5526L27.7816 24.3276C28.5933 24.4653 28.9029 25.2389 28.3354 25.711L22.9304 30.2083" stroke="#6A513D" stroke-width="2.34375" stroke-linecap="round" stroke-linejoin="round"/>
<path d="M30.3051 10.4167H20.6943C16.2395 10.4167 14.012 10.4167 12.7815 11.8704C11.5509 13.324 11.8896 15.5551 12.567 20.0172L13.6581 27.2045C14.7415 34.3409 17.7619 37.5001 25.4997 37.5001C33.2374 37.5001 36.2578 34.3409 37.3413 27.2045L38.4324 20.0172C39.1097 15.5551 39.4484 13.324 38.2178 11.8704C36.9874 10.4167 34.7599 10.4167 30.3051 10.4167Z" stroke="#6A513D" stroke-width="2.34375"/>
</svg>
