<svg width="50" height="50" viewBox="0 0 50 50" fill="none" xmlns="http://www.w3.org/2000/svg">
<path d="M22.3303 14.2954L31.2503 33.3334C26.7364 33.3334 25.3626 30.9523 20.6525 28.5715C16.8844 26.6667 11.6247 26.9842 10.0547 27.3811L16.3699 22.9163C17.0125 22.4619 17.3338 22.2348 17.4365 21.889C17.5392 21.5432 17.3939 21.1773 17.1034 20.446L16.2195 18.2207C15.889 17.3887 15.7237 16.9726 15.425 16.6708C15.3209 16.5657 15.206 16.4719 15.082 16.3911C14.7263 16.1592 14.2855 16.081 13.404 15.9246L6.63189 14.7231C5.20595 14.4701 4.16699 13.2306 4.16699 11.7824C4.16699 9.96302 5.77987 8.56633 7.58055 8.82641L16.7385 10.1491C18.3879 10.3873 19.2126 10.5064 19.9005 10.8996C20.1873 11.0635 20.4535 11.2609 20.6937 11.4877C21.2697 12.0317 21.6232 12.7863 22.3303 14.2954Z" stroke="#6A513D" stroke-width="2.34375" stroke-linecap="round" stroke-linejoin="round"/>
<path d="M39.583 27.0833C43.0348 27.0833 45.833 24.285 45.833 20.8333C45.833 17.3815 43.0348 14.5833 39.583 14.5833C36.1312 14.5833 33.333 17.3815 33.333 20.8333C33.333 24.285 36.1312 27.0833 39.583 27.0833Z" stroke="#6A513D" stroke-width="2.34375" stroke-linecap="round" stroke-linejoin="round"/>
<path d="M4.16699 37.6755C6.36608 30.318 16.1847 33.6949 23.9587 37.6755C31.7326 41.6562 39.5837 44.1891 43.7503 37.6755" stroke="#6A513D" stroke-width="2.34375" stroke-linecap="round" stroke-linejoin="round"/>
</svg>
