<svg width="50" height="50" viewBox="0 0 50 50" fill="none" xmlns="http://www.w3.org/2000/svg">
<path d="M38.0222 21.875H40.9176C44.7749 21.875 45.9214 22.4281 45.8284 25.1746C45.6747 29.7238 43.6232 35.0098 35.417 36.4583" stroke="#6A513D" stroke-width="2.34375" stroke-linecap="round"/>
<path d="M12.3884 42.9468C5.35835 37.5416 4.32257 29.8751 4.16997 21.8751C4.10405 18.4193 5.10712 17.7083 9.70697 17.7083H31.9603C36.5601 17.7083 37.5632 18.4193 37.4974 21.8751C37.3447 29.8751 36.3089 37.5416 29.2789 42.9468C27.2782 44.4849 25.5901 44.7916 22.7491 44.7916H18.9183C16.0771 44.7916 14.389 44.4849 12.3884 42.9468Z" stroke="#6A513D" stroke-width="2.34375" stroke-linecap="round"/>
<path d="M20.833 17.7083V28.1249M17.7168 33.9512L18.325 30.0939C18.5031 28.9641 19.571 28.1249 20.8306 28.1249C22.0901 28.1249 23.158 28.9641 23.3361 30.0939L23.9443 33.9512C24.2722 36.0299 17.4291 35.7762 17.7168 33.9512Z" stroke="#6A513D" stroke-width="2.34375" stroke-linecap="round" stroke-linejoin="round"/>
<path d="M23.5599 5.20825C22.4209 5.91369 20.8355 8.33325 20.8355 11.4583M15.7074 8.33325C15.7074 8.33325 14.583 9.37492 14.583 11.4583M29.1688 8.33325C28.5995 8.68596 28.1247 10.4166 28.1247 11.4583" stroke="#6A513D" stroke-width="2.34375" stroke-linecap="round" stroke-linejoin="round"/>
</svg>
