<svg width="58" height="60" viewBox="0 0 58 60" fill="none" xmlns="http://www.w3.org/2000/svg">
<path fill-rule="evenodd" clip-rule="evenodd" d="M27.7933 0C27.7933 2.22123 27.7933 4.44236 27.7933 6.66359C26.0164 6.66359 24.2394 6.66359 22.4625 6.66359C22.4454 5.3646 22.4625 4.06602 22.5137 2.76795C24.2683 1.83095 26.0281 0.908298 27.7933 0Z" fill="#6A513D"/>
<path fill-rule="evenodd" clip-rule="evenodd" d="M30.7673 0.102539C32.7415 1.05543 34.6893 2.06358 36.6108 3.12678C34.5821 8.39573 32.6001 13.6753 30.6648 18.9656C30.6091 18.9718 30.575 19.0059 30.5623 19.0681C32.5461 19.103 34.4939 19.2055 36.4057 19.3757C34.4654 24.0775 32.6371 28.8275 30.9211 33.6255C29.4812 37.4031 28.5244 41.2988 28.0506 45.3124C27.9994 50.0963 27.9823 54.8805 27.9994 59.6647C26.1882 59.6647 24.3772 59.6647 22.566 59.6647C22.5489 54.7438 22.566 49.823 22.6173 44.9023C23.0172 41.5502 23.7348 38.2697 24.7701 35.0607C26.0785 31.1519 27.4966 27.2904 29.0245 23.4763C27.231 23.3911 25.4199 23.3398 23.5912 23.3226C23.5342 23.2833 23.5 23.232 23.4886 23.1688C25.7891 16.791 28.147 10.435 30.5623 4.10069C30.6307 2.76797 30.6989 1.43526 30.7673 0.102539Z" fill="#6A513D"/>
<path fill-rule="evenodd" clip-rule="evenodd" d="M30.7676 0.102517C30.6992 1.43523 30.631 2.76795 30.5626 4.10067C30.5285 2.73207 30.5627 1.36521 30.6651 0C30.7273 0.0127121 30.7615 0.0468501 30.7676 0.102517Z" fill="black"/>
<path fill-rule="evenodd" clip-rule="evenodd" d="M37.9434 3.79309C39.6048 4.6409 41.2792 5.46104 42.9668 6.25349C42.9668 24.0573 42.9668 41.8609 42.9668 59.6647C41.2581 59.6647 39.5496 59.6647 37.8409 59.6647C37.8068 41.0237 37.8409 22.3998 37.9434 3.79309Z" fill="black"/>
<path fill-rule="evenodd" clip-rule="evenodd" d="M13.0323 7.89379C13.1006 20.7768 13.1689 33.6596 13.2373 46.5426C13.4632 47.7076 14.1125 48.0323 15.1851 47.5165C15.3851 47.3387 15.4876 47.1166 15.4927 46.8501C15.5714 46.7719 15.6227 46.6694 15.6464 46.5426C15.6977 33.1813 15.7148 19.82 15.6977 6.45856C17.3911 5.5518 19.0826 4.62915 20.7723 3.69061C20.8407 17.9063 20.8407 32.1219 20.7723 46.3376C20.0409 50.9632 17.3584 52.8939 12.7247 52.1297C10.5342 51.5455 9.11613 50.1615 8.47027 47.9778C8.42394 47.6316 8.35566 47.2898 8.26524 46.9527C8.0964 34.8234 8.06216 22.6923 8.16272 10.5592C9.78044 9.65646 11.4037 8.76795 13.0323 7.89379Z" fill="black"/>
<path fill-rule="evenodd" clip-rule="evenodd" d="M27.7947 0C27.8969 2.23763 27.9312 4.493 27.8973 6.7661C26.0683 6.79993 24.2571 6.76579 22.4639 6.66359C24.2408 6.66359 26.0178 6.66359 27.7947 6.66359C27.7947 4.44236 27.7947 2.22123 27.7947 0Z" fill="black"/>
<path fill-rule="evenodd" clip-rule="evenodd" d="M50.3482 11.2768C53.8772 10.9796 56.1155 12.5174 57.0631 15.8901C57.2212 16.5997 57.3238 17.3173 57.3706 18.0429C57.439 29.7298 57.439 41.4167 57.3706 53.1036C56.9825 58.7897 54.0266 60.9596 48.5029 59.6135C46.8823 58.8464 45.8059 57.5992 45.2736 55.8716C45.1083 54.9532 44.9716 54.0305 44.8636 53.1036C44.7635 41.0734 44.7976 29.0448 44.9661 17.0178C45.1939 14.9025 46.1678 13.2453 47.8878 12.0457C48.6736 11.6297 49.4937 11.3734 50.3482 11.2768Z" fill="black"/>
<path fill-rule="evenodd" clip-rule="evenodd" d="M13.5449 59.6647C9.06835 59.6647 4.59186 59.6647 0.115259 59.6647C0.0812538 44.656 0.115433 29.6543 0.217775 14.6599C1.80486 13.7808 3.41097 12.9264 5.03606 12.097C5.13858 26.4491 5.17271 40.8014 5.13858 55.154C7.94067 55.154 10.7429 55.154 13.5449 55.154C13.5449 56.6576 13.5449 58.1611 13.5449 59.6647Z" fill="black"/>
<path fill-rule="evenodd" clip-rule="evenodd" d="M50.7586 15.7876C51.5157 15.6953 52.0112 16.0029 52.2451 16.7102C52.3135 29.2856 52.3135 41.861 52.2451 54.4364C52.0338 55.354 51.47 55.6787 50.5536 55.4103C50.2736 55.1411 50.0857 54.8164 49.9898 54.4364C49.9214 42.0319 49.9214 29.6273 49.9898 17.2228C50.0081 16.6046 50.2644 16.1262 50.7586 15.7876Z" fill="white"/>
<path fill-rule="evenodd" clip-rule="evenodd" d="M0.217828 14.6599C0.115485 29.6543 0.0813063 44.656 0.115311 59.6647C0.0128354 44.7145 -0.0213437 29.7471 0.0127944 14.7624C0.0478244 14.6765 0.116172 14.6423 0.217828 14.6599Z" fill="black"/>
<path fill-rule="evenodd" clip-rule="evenodd" d="M23.489 23.1688C23.5004 23.232 23.5345 23.2833 23.5915 23.3225C25.4202 23.3398 27.2314 23.391 29.0249 23.4763C27.1455 23.4763 25.2659 23.4763 23.3865 23.4763C23.3622 23.344 23.3963 23.2415 23.489 23.1688Z" fill="black"/>
<path fill-rule="evenodd" clip-rule="evenodd" d="M30.5625 38.6488C32.3737 38.6488 34.1847 38.6488 35.9959 38.6488C35.9959 45.6541 35.9959 52.6594 35.9959 59.6647C34.1847 59.6647 32.3737 59.6647 30.5625 59.6647C30.5625 52.6594 30.5625 45.6541 30.5625 38.6488Z" fill="#6A513D"/>
<path fill-rule="evenodd" clip-rule="evenodd" d="M20.7214 55.0515C20.7214 56.5892 20.7214 58.127 20.7214 59.6647C18.842 59.6647 16.9624 59.6647 15.083 59.6647C15.083 58.127 15.083 56.5892 15.083 55.0515C16.9624 55.0515 18.842 55.0515 20.7214 55.0515Z" fill="black"/>
<path fill-rule="evenodd" clip-rule="evenodd" d="M20.7214 55.0515C20.8235 56.6054 20.8578 58.1773 20.8239 59.7672C18.8924 59.8011 16.9788 59.7669 15.083 59.6647C16.9624 59.6647 18.842 59.6647 20.7214 59.6647C20.7214 58.127 20.7214 56.5892 20.7214 55.0515Z" fill="black"/>
</svg>
