<svg width="31" height="30" viewBox="0 0 31 30" fill="none" xmlns="http://www.w3.org/2000/svg">
<path d="M13 10C13 12.357 13 13.5355 12.2678 14.2677C11.5355 15 10.357 15 8 15C5.64298 15 4.46446 15 3.73224 14.2677C3 13.5355 3 12.357 3 10C3 7.64298 3 6.46446 3.73224 5.73224C4.46446 5 5.64298 5 8 5C10.357 5 11.5355 5 12.2678 5.73224C13 6.46446 13 7.64298 13 10Z" fill="#6A513D" stroke="#6A513D" stroke-width="1.5"/>
<path d="M13 8.75V14.3526C13 19.3184 9.85536 23.5296 5.5 25" stroke="#6A513D" stroke-width="1.5" stroke-linecap="round"/>
<path d="M28 10C28 12.357 28 13.5355 27.2677 14.2677C26.5355 15 25.357 15 23 15C20.643 15 19.4645 15 18.7323 14.2677C18 13.5355 18 12.357 18 10C18 7.64298 18 6.46446 18.7323 5.73224C19.4645 5 20.643 5 23 5C25.357 5 26.5355 5 27.2677 5.73224C28 6.46446 28 7.64298 28 10Z" fill="#6A513D" stroke="#6A513D" stroke-width="1.5"/>
<path d="M28 8.75V14.3526C28 19.3184 24.8554 23.5296 20.5 25" stroke="#6A513D" stroke-width="1.5" stroke-linecap="round"/>
</svg>
